<mxfile host="app.diagrams.net" modified="2021-03-03T02:50:35.115Z" agent="5.0 (Windows NT 10.0; Win64; x64) AppleWebKit/537.36 (KHTML, like Gecko) Chrome/88.0.4324.190 Safari/537.36" etag="gpI6Gm_tPqmc3lHpfcrG" version="14.4.3" type="github">
  <diagram id="ctFuMoFBZl4wvK6_Ql2x" name="第 1 页">
    <mxGraphModel dx="1422" dy="772" grid="1" gridSize="10" guides="1" tooltips="1" connect="1" arrows="1" fold="1" page="1" pageScale="1" pageWidth="827" pageHeight="1169" math="0" shadow="0">
      <root>
        <mxCell id="0" />
        <mxCell id="1" parent="0" />
        <mxCell id="0Ct6xSLvvkmOlB_KeLBl-1" value="接口调用方" style="rounded=0;whiteSpace=wrap;html=1;" parent="1" vertex="1">
          <mxGeometry x="60" y="50" width="120" height="60" as="geometry" />
        </mxCell>
        <mxCell id="0Ct6xSLvvkmOlB_KeLBl-2" value="易惠平台" style="rounded=0;whiteSpace=wrap;html=1;" parent="1" vertex="1">
          <mxGeometry x="280" y="50" width="120" height="60" as="geometry" />
        </mxCell>
        <mxCell id="0Ct6xSLvvkmOlB_KeLBl-4" value="" style="endArrow=none;dashed=1;html=1;dashPattern=1 3;strokeWidth=2;entryX=0.5;entryY=1;entryDx=0;entryDy=0;" parent="1" target="0Ct6xSLvvkmOlB_KeLBl-1" edge="1">
          <mxGeometry width="50" height="50" relative="1" as="geometry">
            <mxPoint x="120" y="1050" as="sourcePoint" />
            <mxPoint x="310" y="250" as="targetPoint" />
          </mxGeometry>
        </mxCell>
        <mxCell id="0Ct6xSLvvkmOlB_KeLBl-5" value="" style="endArrow=none;dashed=1;html=1;dashPattern=1 3;strokeWidth=2;entryX=0.5;entryY=1;entryDx=0;entryDy=0;" parent="1" source="0Ct6xSLvvkmOlB_KeLBl-59" target="0Ct6xSLvvkmOlB_KeLBl-2" edge="1">
          <mxGeometry width="50" height="50" relative="1" as="geometry">
            <mxPoint x="340" y="1050" as="sourcePoint" />
            <mxPoint x="480" y="370" as="targetPoint" />
          </mxGeometry>
        </mxCell>
        <mxCell id="0Ct6xSLvvkmOlB_KeLBl-6" value="易惠SDK" style="rounded=0;whiteSpace=wrap;html=1;" parent="1" vertex="1">
          <mxGeometry x="510" y="50" width="120" height="60" as="geometry" />
        </mxCell>
        <mxCell id="0Ct6xSLvvkmOlB_KeLBl-7" value="" style="endArrow=none;dashed=1;html=1;dashPattern=1 3;strokeWidth=2;entryX=0.5;entryY=1;entryDx=0;entryDy=0;" parent="1" target="0Ct6xSLvvkmOlB_KeLBl-6" edge="1">
          <mxGeometry width="50" height="50" relative="1" as="geometry">
            <mxPoint x="570" y="1060" as="sourcePoint" />
            <mxPoint x="710" y="370" as="targetPoint" />
          </mxGeometry>
        </mxCell>
        <mxCell id="0Ct6xSLvvkmOlB_KeLBl-8" value="" style="endArrow=classic;html=1;" parent="1" edge="1">
          <mxGeometry width="50" height="50" relative="1" as="geometry">
            <mxPoint x="120" y="150" as="sourcePoint" />
            <mxPoint x="340" y="150" as="targetPoint" />
          </mxGeometry>
        </mxCell>
        <mxCell id="0Ct6xSLvvkmOlB_KeLBl-10" value="1.上传机构密钥" style="text;html=1;strokeColor=none;fillColor=none;align=center;verticalAlign=middle;whiteSpace=wrap;rounded=0;" parent="1" vertex="1">
          <mxGeometry x="130" y="130" width="170" height="20" as="geometry" />
        </mxCell>
        <mxCell id="0Ct6xSLvvkmOlB_KeLBl-12" value="" style="endArrow=classic;html=1;" parent="1" edge="1">
          <mxGeometry width="50" height="50" relative="1" as="geometry">
            <mxPoint x="340" y="180" as="sourcePoint" />
            <mxPoint x="120" y="180" as="targetPoint" />
          </mxGeometry>
        </mxCell>
        <mxCell id="0Ct6xSLvvkmOlB_KeLBl-13" value="2.返回机构密钥" style="text;html=1;strokeColor=none;fillColor=none;align=center;verticalAlign=middle;whiteSpace=wrap;rounded=0;" parent="1" vertex="1">
          <mxGeometry x="140" y="160" width="170" height="20" as="geometry" />
        </mxCell>
        <mxCell id="0Ct6xSLvvkmOlB_KeLBl-14" value="" style="endArrow=classic;html=1;" parent="1" edge="1">
          <mxGeometry width="50" height="50" relative="1" as="geometry">
            <mxPoint x="120" y="230" as="sourcePoint" />
            <mxPoint x="340" y="230" as="targetPoint" />
          </mxGeometry>
        </mxCell>
        <mxCell id="0Ct6xSLvvkmOlB_KeLBl-15" value="3.生成医学标识" style="text;html=1;strokeColor=none;fillColor=none;align=center;verticalAlign=middle;whiteSpace=wrap;rounded=0;" parent="1" vertex="1">
          <mxGeometry x="130" y="210" width="170" height="20" as="geometry" />
        </mxCell>
        <mxCell id="0Ct6xSLvvkmOlB_KeLBl-16" value="" style="endArrow=classic;html=1;" parent="1" edge="1">
          <mxGeometry width="50" height="50" relative="1" as="geometry">
            <mxPoint x="340" y="260" as="sourcePoint" />
            <mxPoint x="120" y="260" as="targetPoint" />
          </mxGeometry>
        </mxCell>
        <mxCell id="0Ct6xSLvvkmOlB_KeLBl-17" value="4.返回医学标识" style="text;html=1;strokeColor=none;fillColor=none;align=center;verticalAlign=middle;whiteSpace=wrap;rounded=0;" parent="1" vertex="1">
          <mxGeometry x="130" y="240" width="170" height="20" as="geometry" />
        </mxCell>
        <mxCell id="0Ct6xSLvvkmOlB_KeLBl-18" value="" style="endArrow=classic;html=1;" parent="1" edge="1">
          <mxGeometry width="50" height="50" relative="1" as="geometry">
            <mxPoint x="120" y="300" as="sourcePoint" />
            <mxPoint x="340" y="300" as="targetPoint" />
          </mxGeometry>
        </mxCell>
        <mxCell id="0Ct6xSLvvkmOlB_KeLBl-19" value="5.验证医学标识" style="text;html=1;strokeColor=none;fillColor=none;align=center;verticalAlign=middle;whiteSpace=wrap;rounded=0;" parent="1" vertex="1">
          <mxGeometry x="130" y="280" width="170" height="20" as="geometry" />
        </mxCell>
        <mxCell id="0Ct6xSLvvkmOlB_KeLBl-20" value="6.返回验证结果" style="text;html=1;strokeColor=none;fillColor=none;align=center;verticalAlign=middle;whiteSpace=wrap;rounded=0;" parent="1" vertex="1">
          <mxGeometry x="130" y="310" width="170" height="20" as="geometry" />
        </mxCell>
        <mxCell id="0Ct6xSLvvkmOlB_KeLBl-21" value="" style="endArrow=classic;html=1;" parent="1" edge="1">
          <mxGeometry width="50" height="50" relative="1" as="geometry">
            <mxPoint x="340" y="330" as="sourcePoint" />
            <mxPoint x="120" y="330" as="targetPoint" />
          </mxGeometry>
        </mxCell>
        <mxCell id="0Ct6xSLvvkmOlB_KeLBl-22" value="7.1.请求生成密钥对" style="text;html=1;strokeColor=none;fillColor=none;align=center;verticalAlign=middle;whiteSpace=wrap;rounded=0;" parent="1" vertex="1">
          <mxGeometry x="130" y="350" width="170" height="20" as="geometry" />
        </mxCell>
        <mxCell id="0Ct6xSLvvkmOlB_KeLBl-23" value="" style="endArrow=classic;html=1;" parent="1" edge="1">
          <mxGeometry width="50" height="50" relative="1" as="geometry">
            <mxPoint x="120" y="370" as="sourcePoint" />
            <mxPoint x="340" y="370" as="targetPoint" />
          </mxGeometry>
        </mxCell>
        <mxCell id="0Ct6xSLvvkmOlB_KeLBl-24" value="" style="endArrow=classic;html=1;" parent="1" edge="1">
          <mxGeometry width="50" height="50" relative="1" as="geometry">
            <mxPoint x="335" y="410" as="sourcePoint" />
            <mxPoint x="115" y="410" as="targetPoint" />
          </mxGeometry>
        </mxCell>
        <mxCell id="0Ct6xSLvvkmOlB_KeLBl-25" value="8.1.返回生成密钥对" style="text;html=1;strokeColor=none;fillColor=none;align=center;verticalAlign=middle;whiteSpace=wrap;rounded=0;" parent="1" vertex="1">
          <mxGeometry x="130" y="390" width="170" height="20" as="geometry" />
        </mxCell>
        <mxCell id="0Ct6xSLvvkmOlB_KeLBl-27" value="" style="endArrow=classic;html=1;" parent="1" edge="1">
          <mxGeometry width="50" height="50" relative="1" as="geometry">
            <mxPoint x="120" y="450" as="sourcePoint" />
            <mxPoint x="570" y="450" as="targetPoint" />
          </mxGeometry>
        </mxCell>
        <mxCell id="0Ct6xSLvvkmOlB_KeLBl-26" value="7.2.请求生成密钥对" style="text;html=1;strokeColor=none;fillColor=none;align=center;verticalAlign=middle;whiteSpace=wrap;rounded=0;" parent="1" vertex="1">
          <mxGeometry x="250" y="430" width="170" height="20" as="geometry" />
        </mxCell>
        <mxCell id="0Ct6xSLvvkmOlB_KeLBl-29" value="" style="endArrow=classic;html=1;" parent="1" edge="1">
          <mxGeometry width="50" height="50" relative="1" as="geometry">
            <mxPoint x="565" y="490" as="sourcePoint" />
            <mxPoint x="115" y="490" as="targetPoint" />
          </mxGeometry>
        </mxCell>
        <mxCell id="0Ct6xSLvvkmOlB_KeLBl-30" value="8.2.返回生成密钥对" style="text;html=1;strokeColor=none;fillColor=none;align=center;verticalAlign=middle;whiteSpace=wrap;rounded=0;" parent="1" vertex="1">
          <mxGeometry x="250" y="470" width="170" height="20" as="geometry" />
        </mxCell>
        <mxCell id="0Ct6xSLvvkmOlB_KeLBl-32" value="" style="endArrow=classic;html=1;" parent="1" edge="1">
          <mxGeometry width="50" height="50" relative="1" as="geometry">
            <mxPoint x="120" y="540" as="sourcePoint" />
            <mxPoint x="340" y="540" as="targetPoint" />
          </mxGeometry>
        </mxCell>
        <mxCell id="0Ct6xSLvvkmOlB_KeLBl-33" value="CDA与OFD库" style="rounded=0;whiteSpace=wrap;html=1;" parent="1" vertex="1">
          <mxGeometry x="720" y="50" width="120" height="60" as="geometry" />
        </mxCell>
        <mxCell id="0Ct6xSLvvkmOlB_KeLBl-34" value="9.上传接入系统应用公钥" style="text;html=1;strokeColor=none;fillColor=none;align=center;verticalAlign=middle;whiteSpace=wrap;rounded=0;" parent="1" vertex="1">
          <mxGeometry x="130" y="520" width="170" height="20" as="geometry" />
        </mxCell>
        <mxCell id="0Ct6xSLvvkmOlB_KeLBl-35" value="" style="endArrow=classic;html=1;" parent="1" edge="1">
          <mxGeometry width="50" height="50" relative="1" as="geometry">
            <mxPoint x="335" y="585" as="sourcePoint" />
            <mxPoint x="115" y="585" as="targetPoint" />
          </mxGeometry>
        </mxCell>
        <mxCell id="0Ct6xSLvvkmOlB_KeLBl-36" value="10.返回接入系统应用公钥" style="text;html=1;strokeColor=none;fillColor=none;align=center;verticalAlign=middle;whiteSpace=wrap;rounded=0;" parent="1" vertex="1">
          <mxGeometry x="130" y="560" width="170" height="20" as="geometry" />
        </mxCell>
        <mxCell id="0Ct6xSLvvkmOlB_KeLBl-38" value="11.下载接入系统应用公钥" style="text;html=1;strokeColor=none;fillColor=none;align=center;verticalAlign=middle;whiteSpace=wrap;rounded=0;" parent="1" vertex="1">
          <mxGeometry x="130" y="600" width="170" height="20" as="geometry" />
        </mxCell>
        <mxCell id="0Ct6xSLvvkmOlB_KeLBl-39" value="" style="endArrow=classic;html=1;" parent="1" edge="1">
          <mxGeometry width="50" height="50" relative="1" as="geometry">
            <mxPoint x="120" y="630" as="sourcePoint" />
            <mxPoint x="340" y="630" as="targetPoint" />
          </mxGeometry>
        </mxCell>
        <mxCell id="0Ct6xSLvvkmOlB_KeLBl-40" value="" style="endArrow=classic;html=1;" parent="1" edge="1">
          <mxGeometry width="50" height="50" relative="1" as="geometry">
            <mxPoint x="335" y="670" as="sourcePoint" />
            <mxPoint x="115" y="670" as="targetPoint" />
          </mxGeometry>
        </mxCell>
        <mxCell id="0Ct6xSLvvkmOlB_KeLBl-41" value="12.返回接入系统应用公钥" style="text;html=1;strokeColor=none;fillColor=none;align=center;verticalAlign=middle;whiteSpace=wrap;rounded=0;" parent="1" vertex="1">
          <mxGeometry x="130" y="640" width="170" height="20" as="geometry" />
        </mxCell>
        <mxCell id="0Ct6xSLvvkmOlB_KeLBl-42" value="" style="endArrow=classic;html=1;" parent="1" edge="1">
          <mxGeometry width="50" height="50" relative="1" as="geometry">
            <mxPoint x="120" y="710" as="sourcePoint" />
            <mxPoint x="340" y="710" as="targetPoint" />
          </mxGeometry>
        </mxCell>
        <mxCell id="0Ct6xSLvvkmOlB_KeLBl-43" value="13.保存CDA与OFD文档接口" style="text;html=1;strokeColor=none;fillColor=none;align=center;verticalAlign=middle;whiteSpace=wrap;rounded=0;" parent="1" vertex="1">
          <mxGeometry x="130" y="680" width="170" height="20" as="geometry" />
        </mxCell>
        <mxCell id="0Ct6xSLvvkmOlB_KeLBl-44" value="" style="endArrow=none;dashed=1;html=1;dashPattern=1 3;strokeWidth=2;entryX=0.5;entryY=1;entryDx=0;entryDy=0;" parent="1" edge="1">
          <mxGeometry width="50" height="50" relative="1" as="geometry">
            <mxPoint x="780" y="1050" as="sourcePoint" />
            <mxPoint x="779.5" y="110" as="targetPoint" />
          </mxGeometry>
        </mxCell>
        <mxCell id="0Ct6xSLvvkmOlB_KeLBl-46" value="14.加密安全存储CDA与OFD" style="text;html=1;strokeColor=none;fillColor=none;align=center;verticalAlign=middle;whiteSpace=wrap;rounded=0;" parent="1" vertex="1">
          <mxGeometry x="480" y="710" width="170" height="20" as="geometry" />
        </mxCell>
        <mxCell id="0Ct6xSLvvkmOlB_KeLBl-47" value="" style="endArrow=classic;html=1;" parent="1" edge="1">
          <mxGeometry width="50" height="50" relative="1" as="geometry">
            <mxPoint x="340" y="730" as="sourcePoint" />
            <mxPoint x="780" y="730" as="targetPoint" />
          </mxGeometry>
        </mxCell>
        <mxCell id="0Ct6xSLvvkmOlB_KeLBl-48" value="" style="endArrow=classic;html=1;" parent="1" edge="1">
          <mxGeometry width="50" height="50" relative="1" as="geometry">
            <mxPoint x="780" y="760" as="sourcePoint" />
            <mxPoint x="340" y="760" as="targetPoint" />
          </mxGeometry>
        </mxCell>
        <mxCell id="0Ct6xSLvvkmOlB_KeLBl-49" value="15.返回存储结果情况" style="text;html=1;strokeColor=none;fillColor=none;align=center;verticalAlign=middle;whiteSpace=wrap;rounded=0;" parent="1" vertex="1">
          <mxGeometry x="480" y="740" width="170" height="20" as="geometry" />
        </mxCell>
        <mxCell id="0Ct6xSLvvkmOlB_KeLBl-50" value="" style="endArrow=classic;html=1;" parent="1" edge="1">
          <mxGeometry width="50" height="50" relative="1" as="geometry">
            <mxPoint x="340" y="790" as="sourcePoint" />
            <mxPoint x="120" y="790" as="targetPoint" />
          </mxGeometry>
        </mxCell>
        <mxCell id="0Ct6xSLvvkmOlB_KeLBl-51" value="16.返回存储结果情况" style="text;html=1;strokeColor=none;fillColor=none;align=center;verticalAlign=middle;whiteSpace=wrap;rounded=0;" parent="1" vertex="1">
          <mxGeometry x="120" y="770" width="170" height="20" as="geometry" />
        </mxCell>
        <mxCell id="0Ct6xSLvvkmOlB_KeLBl-52" value="" style="endArrow=classic;html=1;" parent="1" edge="1">
          <mxGeometry width="50" height="50" relative="1" as="geometry">
            <mxPoint x="120" y="840" as="sourcePoint" />
            <mxPoint x="340" y="840" as="targetPoint" />
          </mxGeometry>
        </mxCell>
        <mxCell id="0Ct6xSLvvkmOlB_KeLBl-53" value="17.暴露对外获取CDA与OFD文件" style="text;html=1;strokeColor=none;fillColor=none;align=center;verticalAlign=middle;whiteSpace=wrap;rounded=0;" parent="1" vertex="1">
          <mxGeometry x="130" y="820" width="190" height="20" as="geometry" />
        </mxCell>
        <mxCell id="0Ct6xSLvvkmOlB_KeLBl-54" value="" style="endArrow=classic;html=1;" parent="1" edge="1">
          <mxGeometry width="50" height="50" relative="1" as="geometry">
            <mxPoint x="340" y="880" as="sourcePoint" />
            <mxPoint x="120" y="880" as="targetPoint" />
          </mxGeometry>
        </mxCell>
        <mxCell id="0Ct6xSLvvkmOlB_KeLBl-55" value="18.返回KEY和加密文件信息" style="text;html=1;strokeColor=none;fillColor=none;align=center;verticalAlign=middle;whiteSpace=wrap;rounded=0;" parent="1" vertex="1">
          <mxGeometry x="140" y="860" width="190" height="20" as="geometry" />
        </mxCell>
        <mxCell id="0Ct6xSLvvkmOlB_KeLBl-56" value="" style="endArrow=classic;html=1;" parent="1" edge="1">
          <mxGeometry width="50" height="50" relative="1" as="geometry">
            <mxPoint x="120" y="920" as="sourcePoint" />
            <mxPoint x="570" y="920" as="targetPoint" />
          </mxGeometry>
        </mxCell>
        <mxCell id="0Ct6xSLvvkmOlB_KeLBl-57" value="19.数字信封解密数据" style="text;html=1;strokeColor=none;fillColor=none;align=center;verticalAlign=middle;whiteSpace=wrap;rounded=0;" parent="1" vertex="1">
          <mxGeometry x="250" y="900" width="190" height="20" as="geometry" />
        </mxCell>
        <mxCell id="0Ct6xSLvvkmOlB_KeLBl-58" value="" style="endArrow=classic;html=1;" parent="1" edge="1">
          <mxGeometry width="50" height="50" relative="1" as="geometry">
            <mxPoint x="570" y="960" as="sourcePoint" />
            <mxPoint x="120" y="960" as="targetPoint" />
          </mxGeometry>
        </mxCell>
        <mxCell id="0Ct6xSLvvkmOlB_KeLBl-59" value="20.获取文件BASE64后字符串" style="text;html=1;strokeColor=none;fillColor=none;align=center;verticalAlign=middle;whiteSpace=wrap;rounded=0;" parent="1" vertex="1">
          <mxGeometry x="245" y="940" width="190" height="20" as="geometry" />
        </mxCell>
        <mxCell id="0Ct6xSLvvkmOlB_KeLBl-60" value="" style="endArrow=none;dashed=1;html=1;dashPattern=1 3;strokeWidth=2;entryX=0.5;entryY=1;entryDx=0;entryDy=0;" parent="1" target="0Ct6xSLvvkmOlB_KeLBl-59" edge="1">
          <mxGeometry width="50" height="50" relative="1" as="geometry">
            <mxPoint x="340" y="1050" as="sourcePoint" />
            <mxPoint x="340" y="110" as="targetPoint" />
          </mxGeometry>
        </mxCell>
        <mxCell id="0Ct6xSLvvkmOlB_KeLBl-61" value="说明：&lt;br&gt;1、上传机构密钥，一个机构仅需调用一次即可（初始化）&lt;br&gt;2、上传接入系统应用公钥，一个接入系统仅需调用一次即可（初始化）&lt;br&gt;3、验证医学标识非必需步骤，可不验证&lt;br&gt;4、下载接入应用系统公钥非必需步骤，可不下载&lt;br&gt;5、生成密钥对可使用平台能力或者SDK能力，二者选其一，生成的私钥自己保留，不对外暴露&lt;br&gt;6、非主流程接口，且不提供第三方厂商，仅用于内部的HTTP接口包括&lt;br&gt;提取CDA与OFD文件、删除文件CDA与OFD文档&lt;br&gt;&lt;br&gt;&lt;br&gt;其他信息：&lt;br&gt;接口调用： POST http://192.168.35.229:8082/credibleData/+服务接口&lt;br&gt;&lt;span style=&quot;color: rgb(60 , 67 , 83) ; font-family: &amp;#34;helvetica neue&amp;#34; , &amp;#34;helvetica&amp;#34; , &amp;#34;tahoma&amp;#34; , &amp;#34;arial&amp;#34; , &amp;#34;pingfang sc&amp;#34; , &amp;#34;source han sans cn&amp;#34; , &amp;#34;source han sans&amp;#34; , &amp;#34;source han serif&amp;#34; , &amp;#34;hiragino sans gb&amp;#34; , &amp;#34;wenquanyi micro hei&amp;#34; , &amp;#34;microsoft yahei&amp;#34; , sans-serif ; font-size: 13px&quot;&gt;数据库地址：192.168.44.83&amp;nbsp; 3306&amp;nbsp; &amp;nbsp; credibledata&amp;nbsp; &amp;nbsp; 账号密码credibledata/Credibledata@0222&lt;br&gt;&lt;/span&gt;&lt;br&gt;用到的三张表：&lt;br&gt;CD_APP_KEY&lt;br&gt;CD_FILE&lt;br&gt;CD_ORG_KEY&lt;br&gt;上传机构密钥——》CD_ORG_KEY&lt;br&gt;上传应用公钥——》CD_APP_KEY&lt;br&gt;保存CDA与OFD文档接口——》CD_FILE&lt;br&gt;&lt;br&gt;&lt;br&gt;7.2 请求生成密钥对以及19.数字信封解密需要用SDK包来调用" style="text;html=1;strokeColor=none;fillColor=none;align=left;verticalAlign=middle;whiteSpace=wrap;rounded=0;" parent="1" vertex="1">
          <mxGeometry x="840" y="280" width="320" height="150" as="geometry" />
        </mxCell>
      </root>
    </mxGraphModel>
  </diagram>
</mxfile>
